<?xml version="1.0" standalone="no"?>
<!DOCTYPE svg PUBLIC "-//W3C//DTD SVG 20010904//EN"
 "http://www.w3.org/TR/2001/REC-SVG-20010904/DTD/svg10.dtd">
<svg version="1.0" xmlns="http://www.w3.org/2000/svg"
 width="640.000000pt" height="640.000000pt" viewBox="0 0 640.000000 640.000000"
 preserveAspectRatio="xMidYMid meet">
<metadata>
Created by potrace 1.11, written by Peter Selinger 2001-2013
</metadata>
<g transform="translate(0.000000,640.000000) scale(0.100000,-0.100000)"
fill="#000000" stroke="none">
<path d="M1933 6358 c-1 -24 -13 -183 -18 -223 -2 -22 -7 -71 -10 -110 -3 -38
-8 -88 -10 -110 -2 -22 -7 -74 -10 -115 -3 -41 -8 -91 -10 -110 -2 -19 -6 -71
-10 -115 -3 -44 -8 -93 -10 -110 -7 -50 -7 -326 0 -390 3 -33 11 -87 17 -120
5 -33 12 -73 15 -88 13 -83 73 -248 129 -361 32 -62 30 -72 -6 -36 -18 18
-100 80 -105 80 -14 0 -292 190 -371 254 -88 70 -226 205 -344 337 -41 46 -88
97 -104 114 -15 16 -51 56 -79 87 -28 32 -52 56 -54 54 -2 -1 3 -32 11 -67 8
-35 18 -84 21 -109 4 -24 8 -47 10 -51 2 -3 7 -21 10 -40 47 -275 77 -370 171
-554 63 -123 141 -245 252 -395 47 -63 95 -128 107 -145 45 -61 120 -248 141
-350 37 -182 53 -315 69 -590 4 -55 8 -116 10 -135 2 -19 7 -64 10 -100 3 -36
8 -81 10 -100 10 -95 18 -158 22 -185 2 -16 6 -46 8 -65 23 -192 123 -609 174
-725 5 -11 15 -36 22 -55 26 -72 113 -238 167 -318 117 -175 305 -336 464
-396 l47 -18 -1 -52 c-1 -90 11 -489 17 -544 31 -290 121 -386 375 -397 239
-10 370 145 385 460 8 148 8 421 1 433 -5 8 14 32 54 70 61 56 175 200 218
276 18 30 22 48 17 83 -4 39 -1 50 28 86 17 23 35 44 38 47 29 25 114 183 172
320 14 32 52 161 63 213 15 67 33 168 38 212 3 28 8 64 10 81 4 29 18 153 32
294 3 36 8 73 9 82 2 9 7 48 10 85 4 37 9 70 10 73 2 3 6 26 10 50 14 100 59
282 101 407 48 145 94 248 184 409 33 59 60 109 60 111 0 1 20 32 45 69 25 36
45 67 45 69 0 11 210 303 277 385 7 8 45 56 85 106 176 220 234 291 263 324
16 20 44 53 60 74 17 21 35 44 40 50 6 6 36 43 67 82 l57 72 -32 -8 c-18 -4
-61 -15 -97 -24 -36 -9 -73 -19 -83 -21 -130 -30 -329 -81 -392 -101 -399
-128 -694 -324 -883 -586 -20 -28 -53 -83 -74 -122 l-37 -71 -2 40 c-2 76 -16
288 -24 360 -2 22 -7 72 -10 110 -4 39 -8 77 -10 85 -2 8 -7 40 -10 70 -18
152 -104 519 -135 572 -6 10 -10 25 -10 33 0 8 -4 23 -10 33 -5 9 -21 46 -36
82 -122 303 -376 658 -519 726 -108 51 -218 19 -309 -92 -173 -211 -365 -580
-456 -876 -13 -43 -26 -78 -29 -78 -40 3 -128 148 -160 264 -20 70 -22 81 -36
161 -3 22 -11 60 -16 85 -9 40 -62 315 -74 379 -3 14 -7 37 -10 51 -3 14 -15
80 -27 148 -13 67 -25 122 -29 122 -3 0 -6 -6 -6 -12z"/>
</g>
</svg>
