<?xml version="1.0" encoding="UTF-8"?>
<!DOCTYPE svg  PUBLIC '-//W3C//DTD SVG 1.1//EN'  'http://www.w3.org/Graphics/SVG/1.1/DTD/svg11.dtd'>
<svg enable-background="new 0 0 51 57.9" version="1.1" viewBox="0 0 51 57.9" xml:space="preserve" xmlns="http://www.w3.org/2000/svg">
<g clip-rule="evenodd" fill-rule="evenodd">
	<path d="m48.1 3.95l-0.05 0.4-4.5-0.15c-0.566 0-1.533-0.067-2.899-0.2-1.267-0.1-2.25-0.15-2.95-0.15-3.733-0.1-5.617-0.15-5.65-0.15-0.467-0.034-1.916-0.217-4.35-0.55-2.066-0.267-4.05-0.4-5.95-0.4-2.333 0-4.533-0.117-6.6-0.35-4.668-0.5-8.018-0.717-10.051-0.65-0.6 0-1.017 0.033-1.25 0.1-0.267 0.033-0.483 0.233-0.65 0.6l-0.4 0.85-0.2 0.45 0.35-3.5 16 1.15c2.433 0.2 8.233 0.617 17.399 1.25 1.967 0.233 5.584 0.5 10.851 0.8 0.267 0 0.55 0.017 0.85 0.05h0.101l-0.051 0.45zm-2.4 2l-1.8 0.05c-0.034-0.1-0.051-0.183-0.051-0.25l2.45 0.1 0.75 0.1h-1.349zm-1.9 13.2l1.8 0.3c-2-0.2-3.5-0.383-4.5-0.55h5.45v0.2l-3.35-0.05 0.6 0.1zm-37.3 5.85l4.5 0.9-4.4-0.1-3.75-0.85c0.167 0.033 0.4 0.017 0.7-0.05l1.35-0.05h0.5l0.35-0.05 0.15 0.05 0.6 0.15zm-1.5-17.2l-0.75 0.35c-0.267 0.133-0.5 0.35-0.7 0.65-0.2 0.333-0.267 0.75-0.2 1.25h0.5c0.233 0 0.383 0.034 0.45 0.1-0.133 0.1-0.216 0.184-0.25 0.25-0.1 0.1-0.15 0.184-0.15 0.25 0 0.067-0.05 0.383-0.15 0.95l-0.05 0.4-0.2 1.65c-0.033 0.133-0.033 0.35 0 0.65l-0.1 0.15h-0.05c-0.267 0.066-0.467 0.133-0.6 0.2l0.05-0.2 0.2-2.35 0.15-1.5 0.2-2.35h0.05c0.186-0.124 0.361-0.208 0.525-0.25h0.025c0.04-8e-3 0.082-0.016 0.125-0.025 0.055-6e-3 0.114-0.014 0.175-0.025l0.9-0.25-0.15 0.1zm-2.2 11.65c-0.033 0.066-0.066 0.133-0.1 0.2l-0.4 0.55-0.05 0.05 0.1-0.75 0.2-2.35c0.967 0 2.417-0.066 4.35-0.2-0.033 0-0.45 0.15-1.25 0.45l-1.5 0.45c-0.533 0.233-0.883 0.467-1.05 0.7-0.1 0.1-0.167 0.284-0.2 0.55 0 0.067-0.033 0.183-0.1 0.35z" fill="#E2CD9A"/>
	<path d="m48 5l0.1-1.05 0.05-0.45h-0.101c-0.3-0.033-0.583-0.05-0.85-0.05l3.201-0.45-0.2 2-0.65 0.25-2.45 0.4c-0.399 0.067-0.85 0.1-1.35 0.1l-1.2-0.2 3.4-0.05 0.05-0.5zm0.6 14.15h-4.8l-0.6-0.1 3.35 0.05 0.2-1.85 0.35-0.35c0.334-0.3 0.483-0.816 0.45-1.55-0.066-1-0.083-1.567-0.05-1.7 0.066-0.2 0.116-0.367 0.15-0.5 0.066-0.233 0.083-0.583 0.05-1.05-0.033-0.5-0.05-0.85-0.05-1.05-0.034-0.9-0.05-1.683-0.05-2.35l0.25-2.35h0.45c0.566 0 1.101-0.067 1.601-0.2l-1.051 12.85-0.25 0.15zm-2.35 3.1l0.05-0.4c0.134-0.067 0.3-0.1 0.5-0.1 0.434 0 0.7-0.033 0.8-0.1-0.533-0.167-0.949-0.25-1.25-0.25v-0.05l0.15-1.55h1.3c0.2 0.034 0.483 0.05 0.851 0.05l-0.95 9.4c-0.033 0.033-0.167 0.05-0.4 0.05l-1.1 0.15c-0.033-0.3-0.033-0.684 0-1.15 0.1-0.5 0.149-0.883 0.149-1.15l0.05-0.95c0.166-0.833 0.183-1.434 0.05-1.8-0.101-0.066-0.15-0.133-0.15-0.2-0.066-0.167-0.1-0.4-0.1-0.7-0.033-0.1-0.05-0.2-0.05-0.3l0.1-0.95zm-0.6 11l0.5-0.25 0.5-0.2-1 0.45zm-42.85-8.05l3.05 0.6-5.45-0.15 2.4-0.45z" fill="#796942"/>
	<path d="m3.95 3.4l-0.15 0.35 2.2-0.7c-0.367 0-0.85 0.05-1.45 0.15l0.5-0.15c-0.566 0-1.316 0.083-2.25 0.25l0.4-0.85c4.433-0.267 8.267-0.117 11.5 0.45 2.367 0.434 4.933 0.967 7.7 1.6 2.267 0.433 4.917 0.6 7.95 0.5 4.2-0.167 10.084-0.167 17.65 0l-0.05 0.5-3.4 0.05 1.2 0.2 0.55 0.1-2.45-0.1c-0.1-0.233-0.3-0.433-0.6-0.6-0.6 0.167-1.134 0.383-1.6 0.65-1.7-0.066-3.351-0.066-4.95 0-1.667 0.1-3.467 0.117-5.4 0.05 1.467-0.033 3.517-0.184 6.15-0.45l-12.6-0.15c-1.767-0.267-3.133-0.433-4.1-0.5l0.05 0.05c-0.167-0.033-0.333-0.05-0.5-0.05l0.05 0.05c-2.5-0.4-5.05-0.7-7.65-0.9-3.6-0.267-6.217-0.217-7.85 0.15l-2.3 0.55h-0.05l0.1-0.85 1.35-0.35zm43.9 2.7l-2.15-0.15h1.35l0.15 0.05 0.649 0.05v0.05zm-2.6 26.05l-0.15 1.35-11.55-1.1-1-0.101 3.55-0.55c2.534-0.4 5.634-0.833 9.301-1.3v0.05l-1.801 0.401c-0.366 0.066-0.816 0.216-1.35 0.449-0.7 0.301-1.15 0.483-1.35 0.551l-2.551 0.75c2.134-0.334 4.434-0.5 6.901-0.5zm-40.3-7.3h-0.05l-0.15-0.05-3.1 0.15-1.15-0.2 0.15-1.3h1.3l3.05-0.05h0.55c1.034 0.033 1.833 0.117 2.4 0.25 1.3 0.3 1.966 0.45 2 0.45-0.034-0.067-0.083-0.117-0.15-0.15l0.65 0.15c-0.5-0.633-1.184-1.083-2.05-1.35-0.7-0.333-1.217-0.55-1.55-0.65-0.367-0.133-1.033-0.2-2-0.2h-1.05c-0.566 0-1.417 0.067-2.55 0.2l-0.5 0.1 0.2-1.95 0.05-0.05 0.45-0.55c0.3-0.066 0.6-0.117 0.9-0.15l-0.1 0.75 0.05-0.05 0.4-0.55c0.033-0.066 0.066-0.133 0.1-0.2 1.067-0.133 2.034-0.1 2.9 0.1 0.566 0.133 1.633 0.867 3.2 2.2 1.667 1.4 3.85 2.533 6.55 3.4 0.167 0.067 0.333 0.117 0.5 0.15 1.2 0.8 2.367 1.15 3.5 1.05 0.333 0.066 0.683 0.15 1.05 0.25 0.133 0.233 0.333 0.467 0.6 0.7-0.3-0.1-0.517-0.117-0.65-0.05-0.2-0.033-0.35-0.033-0.45 0 0.033 0.233 0.367 0.417 1 0.55 0.233 0.067 0.517 0.15 0.85 0.25 0.133 0.167 0.233 0.35 0.3 0.55 0.434-0.067 0.85-0.167 1.25-0.3 0.733 0.1 1.55 0.133 2.45 0.1 0.934 0 1.967-0.033 3.101-0.1-0.033 0.034-0.05 0.067-0.05 0.1 0.066-0.033 0.149-0.083 0.25-0.15 0.699-0.067 1.433-0.15 2.199-0.25l-1.399 0.05c0-0.032 0.017-0.049 0.05-0.05h-0.3c1.1-0.433 2.55-0.733 4.35-0.9 2.134-0.2 3.7-0.467 4.7-0.8 1.5-0.1 3.316-0.2 5.45-0.3l1.649 0.2-0.1 0.95c-2.566-0.2-5.434-0.117-8.6 0.25-5.467 0.733-9.034 1.184-10.7 1.35-2.467 0.233-4.284 0.117-5.45-0.35-3.733-1.533-6.533-2.4-8.4-2.6l-6.1-0.8-0.6-0.15-0.15-0.05-0.35 0.05-0.15-0.05-0.3 0.05zm9.2 6l-12.75-1.25 0.15-1.75c2.5-0.2 5.083-0.3 7.75-0.3l3.05 1.3c2.3 0.966 4.217 1.716 5.75 2.25l0.05 0.051h-0.05l-2.15-0.151-0.4-0.35c-0.367 0.033-0.816-0.117-1.35-0.45-0.8-0.467-1.233-0.717-1.3-0.75-0.367-0.134-0.95-0.267-1.75-0.4-1.767-0.233-3.2-0.183-4.3 0.15 0.233 0.033 0.783 0.05 1.65 0.05 0.667 0.033 1.217 0.083 1.65 0.15 0.567 0.1 1.2 0.3 1.9 0.6 0.4 0.167 1.017 0.417 1.85 0.75l0.25 0.1zm-5.85-14.3c-1.933 0-4.267 0.15-7 0.45h-0.05l0.15-1.05h6.3c0.2 0.167 0.4 0.367 0.6 0.6zm-6.8-1.55h-0.05l0.05-0.35c0.133-0.066 0.35-0.133 0.65-0.2h0.65l-0.05 0.2c0.133-0.066 0.333-0.133 0.6-0.2h0.05c0.733-0.034 1.5-0.017 2.3 0.05 0.267 0.067 0.583 0.233 0.95 0.5-0.566-0.033-1.283-0.05-2.15-0.05h-0.525c-0.699 7e-3 -1.524 0.024-2.475 0.05zm3.5-7.2l0.15-0.1-0.9 0.25c-0.061 0.011-0.12 0.019-0.175 0.025-0.043 9e-3 -0.085 0.017-0.125 0.025h-0.025c-0.244 0.044-0.469 0.077-0.675 0.1l0.85-0.4-1.3 0.3c-0.2 0.033-0.4 0.117-0.6 0.25h-0.05l0.05-0.75h0.05l0.9-0.3c0.1-0.034 0.2-0.05 0.3-0.05l-0.05 0.35 0.85-0.3c1.2-0.333 2.4-0.633 3.6-0.9-0.6-0.033-1.167-0.05-1.7-0.05-1.433-0.033-2.7 0.1-3.8 0.4h-0.05l0.1-0.85c2.633-0.333 4.967-0.533 7-0.6 0.033 0.2 0.033 0.316 0 0.35-0.1 0.167-0.45 0.3-1.05 0.4 0.133 0.567 0.45 0.833 0.95 0.8h0.1c-0.167 0.033-0.333 0.067-0.5 0.1-1.533 0.4-2.833 0.717-3.9 0.95zm-2 4.3c-0.167 0.033-0.333 0.066-0.5 0.1l0.1-0.6c0.1-0.567 0.15-0.883 0.15-0.95 0.133-0.033 0.267-0.05 0.4-0.05l-0.15 1.5zm9.15-6.95c1.633 0.033 3 0.167 4.1 0.4s2.383 0.567 3.85 1c-0.067 0.233-0.117 0.483-0.15 0.75-1.833-0.633-3.6-0.983-5.3-1.05h-1.1c0.067-0.1 0.167-0.183 0.3-0.25-0.3-0.7-0.684-0.867-1.15-0.5-0.6 0.433-0.983 0.583-1.15 0.45 0.133-0.167 0.333-0.433 0.6-0.8zm24.65 8.35c0 0.267-0.017 0.517-0.05 0.75-3.167-0.167-6.3-0.467-9.4-0.9l-5.25-1.6c-0.133-0.267-0.267-0.517-0.4-0.75 0.966 0.233 2.017 0.517 3.15 0.85 3.167 0.9 6.05 1.417 8.65 1.55 1.1 0.067 2.2 0.1 3.3 0.1zm-14.3-0.9c-0.1-0.167-0.183-0.333-0.25-0.5 0.6 0.167 1.183 0.333 1.75 0.5l0.35 0.1-2.15-0.7v-0.05c0.867 0.2 1.733 0.417 2.6 0.65l2.351 0.7c-1.801-0.267-3.351-0.5-4.651-0.7zm-2.1-5.15c-0.1-0.333-0.15-0.617-0.15-0.85 1.2 0.333 2.517 0.75 3.95 1.25-0.2 0-0.317 0.017-0.35 0.05-0.133-0.033-0.25-0.05-0.35-0.05-0.2 0-0.333 0.033-0.4 0.1 0.633 0.566 1.283 1.033 1.95 1.4-1.367-0.567-2.533-1.05-3.5-1.45-0.4-0.167-0.783-0.317-1.15-0.45zm-1.85 4.45c0.034-0.066 0.05-0.117 0.05-0.15-0.067-0.267-0.184-0.45-0.35-0.55 0.067 0 0.15 0.017 0.25 0.05 0.633 0.133 1.25 0.267 1.85 0.4 0.033 0.167 0.083 0.35 0.15 0.55-0.633-0.133-1.283-0.233-1.95-0.3zm-3.3-1.15l0.5 0.8c0.467-0.2 0.817-0.4 1.05-0.6 0.267 0.033 0.534 0.083 0.8 0.15-0.1 0-0.2 0.017-0.3 0.05-0.367 0.133-0.65 0.3-0.85 0.5-0.534-0.033-1.1-0.066-1.7-0.1 0.1-0.167 0.183-0.333 0.25-0.5-0.033-0.167-0.083-0.283-0.15-0.35 0.133 0 0.267 0.017 0.4 0.05zm0.65-1l-0.2 0.1-0.05-0.05h-1.85c0.067-0.066 0.117-0.15 0.15-0.25 0.1 0 0.2 0.017 0.3 0.05v0.15c0.333 0.033 0.65 0 0.95-0.1 0.233 0.033 0.467 0.067 0.7 0.1zm1.25 0.5c0-0.1-0.017-0.2-0.05-0.3 0.9 0.133 1.917 0.35 3.05 0.65 0.033 0.2 0.067 0.4 0.1 0.6l-3.1-0.95zm-3.6 0.35c-0.466 0.2-0.783 0.483-0.95 0.85h-0.8l0.1-0.1c0.2-0.267 0.233-0.55 0.1-0.85h0.4l0.1 0.2c0.133-0.067 0.267-0.117 0.4-0.15 0.2 0 0.417 0.017 0.65 0.05zm33.25 0.2c0.066-0.267 0.084-0.433 0.05-0.5-0.166-0.066-0.35-0.133-0.55-0.2 0.2-0.033 0.384-0.067 0.55-0.1l0.65-0.15-0.1 0.9c-0.233 0-0.433 0.017-0.6 0.05zm-6.35-0.6c0.1 0.267 0.149 0.533 0.149 0.8h-0.599v-0.8h0.45zm-1.5 4.15c0.566-0.434 1.35-0.733 2.35-0.9 0.134-0.034 0.25-0.05 0.351-0.05 1.533-0.066 3.366-0.183 5.5-0.35l-0.101 1.25c-2.734 0.133-5.434 0.15-8.1 0.05zm-12.7 4.65c0 0.333 0.033 0.683 0.1 1.05-0.399-0.1-0.8-0.183-1.199-0.25-0.034-0.367-0.084-0.733-0.15-1.1 0.399 0.1 0.815 0.2 1.249 0.3zm15.4 2.25c-0.367 0-0.667 0.067-0.9 0.2-0.033-0.1-0.05-0.184-0.05-0.25l0.95 0.05zm-0.85 0.35c1.267 0.167 3.084 0.383 5.45 0.65l-0.05 0.4c-1.667-0.1-3.434-0.233-5.3-0.4-0.034-0.2-0.067-0.4-0.101-0.6v-0.05zm-4.9-11.65l-8.6-0.9c-0.1 0.033-0.333-0.05-0.7-0.25l-0.75-0.4c1.134 0.4 1.9 0.617 2.301 0.65 2.866 0.367 5.449 0.65 7.749 0.85v0.05zm-8.95 0.15c0.666 0.133 1.583 0.217 2.75 0.25 1.033 0.066 2.033 0.1 3 0.1 1.133 0 2.233-0.034 3.3-0.1 0.033 0.2 0.083 0.4 0.15 0.6-4.266-0.133-7.334-0.417-9.2-0.85zm2.4 9.65c0 0.033-0.017 0.067-0.05 0.1-0.1 0.233-0.184 0.467-0.25 0.7-0.166-0.033-0.316-0.05-0.45-0.05-0.133-0.3-0.216-0.633-0.25-1 0.334 0.1 0.667 0.183 1 0.25zm-7.85-2c0.2 0.067 0.4 0.117 0.6 0.15 0.066 0.434 0.133 0.85 0.2 1.25-0.167-0.033-0.316-0.066-0.45-0.1-0.1-0.233-0.3-0.383-0.6-0.45-0.067 0.1-0.133 0.2-0.2 0.3-0.4-0.1-0.783-0.2-1.15-0.3-0.1-0.033-0.2-0.05-0.3-0.05-0.133-0.267-0.367-0.55-0.7-0.85l-0.85 0.45c-0.4-0.1-0.767-0.183-1.1-0.25 0.267-0.167 0.633-0.35 1.1-0.55 0.233-0.167 0.35-0.35 0.35-0.55 0.434 0.133 0.883 0.284 1.35 0.45l-0.5 0.25c0.267 1.033 0.817 1.317 1.65 0.85 0.333-0.167 0.533-0.367 0.6-0.6zm-11.25-6.3c-2.367 0.033-4.55 0.217-6.55 0.55l0.05-0.4c0.1-0.567 0.15-0.883 0.15-0.95 0-0.066 0.05-0.15 0.15-0.25 1.9-0.367 3.684-0.6 5.35-0.7-0.066 0.167-0.033 0.316 0.1 0.45 0.3 0.133 0.733 0.067 1.3-0.2 0.267-0.133 0.434-0.267 0.5-0.4h0.55l0.25 0.4c-0.233 0.033-0.467 0.083-0.7 0.15-0.767 0.233-1.3 0.367-1.6 0.4h0.55c-0.167 0.067-0.333 0.167-0.5 0.3l0.4 0.65zm0.1 5.15c-0.333-0.267-0.633-0.5-0.9-0.7h1.25c0.2 0.067 0.383 0.083 0.55 0.05 0.233 0.066 0.433 0.017 0.6-0.15-1-0.1-1.75-0.216-2.25-0.35-0.467-0.1-0.883-0.167-1.25-0.2-0.633-0.367-1.2-0.6-1.7-0.7 1.033 0.034 2.083 0.1 3.15 0.2 0.567 0.067 1.117 0.133 1.65 0.2 0 0.066 0.017 0.133 0.05 0.2 0.367-0.066 0.617 0.1 0.75 0.5 0.3-0.167 0.567-0.316 0.8-0.45 0.24 0.06 0.482 0.118 0.725 0.175-0.069-7e-3 -0.127 1e-3 -0.175 0.025-0.7 0.167-1.133 0.533-1.3 1.1l0.2 0.35c-0.067-0.033-0.117-0.05-0.15-0.05-0.6-0.1-1.267-0.167-2-0.2zm4.8-0.85c0.1 0.033 0.217 0.067 0.35 0.1 0.3 0.1 0.683 0.217 1.15 0.35-0.133 0.066-0.25 0.167-0.35 0.3-0.4 0.4-0.5 0.783-0.3 1.15-0.133-0.033-0.25-0.05-0.35-0.05-0.2-0.267-0.483-0.35-0.85-0.25-0.466-0.1-0.85-0.184-1.15-0.25l1.3-0.75c-0.067-0.367-0.2-0.633-0.4-0.8 0.1 0.034 0.217 0.067 0.35 0.1 0.067 0.033 0.15 0.067 0.25 0.1zm10.4 12.3c-0.434-0.033-0.917-0.083-1.45-0.15 0.167-0.133 0.333-0.283 0.5-0.45 0.733 0.133 1.433 0.216 2.1 0.25l2.2-0.25c0.033 0.2 0.05 0.383 0.05 0.55l-3.101 0.05h-0.299z" fill="#B59C60"/>
	<path d="m49.9 6.15c-0.5 0.133-1.034 0.2-1.601 0.2h-0.45v-0.3l-0.8-0.1-0.75-0.1-0.55-0.1c0.5 0 0.95-0.033 1.35-0.1l2.45-0.4-0.149 0.05 0.55 0.2-0.05 0.65zm-4.3 13.3l-1.8-0.3h4.8l-0.3 0.15 0.351 0.2v0.35c-0.367 0-0.65-0.017-0.851-0.05h-1.3v-0.2l-0.9-0.15zm1.05 13.35l-0.5 0.2-0.15-0.5c-0.233-0.667-0.267-1.3-0.1-1.9 0.199-0.933 0.3-1.899 0.3-2.899 0-1.367-0.066-2.3-0.2-2.8l0.15-1.7c0 0.1 0.017 0.2 0.05 0.3 0 0.3 0.033 0.533 0.1 0.7 0 0.066 0.05 0.133 0.15 0.2 0.133 0.367 0.116 0.967-0.05 1.8l-0.051 0.95c0 0.267-0.05 0.65-0.149 1.15-0.033 0.467-0.033 0.851 0 1.15l1.1-0.15c0.233 0 0.367-0.017 0.4-0.05l-0.05 0.5c0 0.6-0.117 1.517-0.351 2.75l-0.649 0.299zm0.1-15.55l0.3-2.95 0.101-1.25 0.25-2.3 0.1-0.9 0.1-1.15c0 0.667 0.017 1.45 0.051 2.35 0 0.2 0.017 0.55 0.05 1.05 0.033 0.467 0.017 0.816-0.05 1.05-0.034 0.133-0.084 0.3-0.15 0.5-0.033 0.133-0.017 0.7 0.05 1.7 0.033 0.733-0.116 1.25-0.45 1.55l-0.352 0.35zm-0.45 4.6l0.05-0.45c0.301 0 0.717 0.083 1.25 0.25-0.1 0.067-0.366 0.1-0.8 0.1-0.2 0-0.366 0.033-0.5 0.1z" fill="#594C30"/>
	<path d="m12.15 10.05c-0.133 0-0.25 0.017-0.35 0.05-0.5 0.167-0.883 0.283-1.15 0.35-0.066 0-0.133 0.017-0.2 0.05h-0.65c0.3-0.033 0.833-0.167 1.6-0.4 0.233-0.067 0.467-0.117 0.7-0.15l0.05 0.1zm-1.05-2.55l0.1 0.7c0 0.3 0.117 0.566 0.35 0.8l1.35-0.75c-0.467-1.033-1.067-1.283-1.8-0.75zm3.05 0.6c0.767-0.4 0.983-0.833 0.65-1.3-0.633-0.066-1.283 0.133-1.95 0.6 0.133 0.867 0.567 1.1 1.3 0.7zm5.8-0.8c-0.1 0.9-0.034 2 0.2 3.3-1.133-0.3-2.15-0.517-3.05-0.65-0.067-0.2-0.2-0.417-0.4-0.65l-0.8 0.45c-0.233-0.033-0.467-0.067-0.7-0.1 0.333-0.1 0.65-0.267 0.95-0.5l-0.8-1.35c-0.5 0.2-0.833 0.483-1 0.85-0.1 0.233-0.133 0.55-0.1 0.95-0.1-0.033-0.2-0.05-0.3-0.05 0.033-0.033 0.066-0.083 0.1-0.15l-0.4-0.65c-0.667-0.067-1.3 0.133-1.9 0.6l0.1 0.2h-0.55c0.067-0.2-0.033-0.417-0.3-0.65-0.267-0.333-0.65-0.283-1.15 0.15-0.233 0.233-0.383 0.45-0.45 0.65-1.667 0.1-3.45 0.333-5.35 0.7 0.034-0.066 0.117-0.15 0.25-0.25-0.066-0.066-0.216-0.1-0.45-0.1h-0.5c-0.067-0.5 0-0.917 0.2-1.25 0.2-0.3 0.434-0.517 0.7-0.65l0.75-0.35c1.067-0.233 2.367-0.55 3.9-0.95 0.167-0.033 0.333-0.067 0.5-0.1 0.5-0.033 0.817 0.067 0.95 0.3-0.6 0.133-1 0.25-1.2 0.35-0.367 0.133-0.467 0.434-0.3 0.9 0.267-0.1 0.617 0 1.05 0.3 0.767-1.3 1.917-1.934 3.45-1.9-0.033-0.167 0.033-0.317 0.2-0.45h1.1c1.7 0.067 3.467 0.417 5.3 1.05zm-7.8-2.15c0.167-0.367 0.05-0.733-0.35-1.1-0.333 0.567-0.683 0.75-1.05 0.55-0.5-0.3-0.967-0.317-1.4-0.05 0.033 0.267 0.05 0.483 0.05 0.65-2.033 0.066-4.367 0.267-7 0.6l0.15-1.2 2.3-0.55c1.633-0.367 4.25-0.417 7.85-0.15 2.6 0.2 5.15 0.5 7.65 0.9l0.1 0.05c0.2 0.167 0.633 0.316 1.3 0.45 0.367 0.067 0.75 0.117 1.15 0.15 2.167 0.367 4.517 0.5 7.05 0.4 1.366-0.033 3.233-0.184 5.6-0.45l-11.5-0.15c-1.367-0.233-2.45-0.383-3.25-0.45l-0.05-0.05c0.967 0.067 2.333 0.233 4.1 0.5l12.6 0.15c-2.634 0.267-4.684 0.417-6.15 0.45 1.934 0.066 3.733 0.05 5.4-0.05 1.6-0.066 3.25-0.066 4.95 0-1.034 0.534-1.867 1.233-2.5 2.1 0.933 0.467 1.283 0.917 1.05 1.35-1.066-0.933-2.15-1.833-3.25-2.7-1 0.667-1.351 1.784-1.05 3.35-2.301-0.2-4.884-0.483-7.75-0.85-0.4-0.033-1.167-0.25-2.301-0.65l0.75 0.4c0.368 0.2 0.601 0.283 0.701 0.25l8.601 0.9c0.033 0.133 0.066 0.267 0.1 0.4-1.066 0.066-2.167 0.1-3.3 0.1 1.066-0.034 2.1-0.133 3.1-0.3l-9.5-1.1c-0.068 0.033-0.284-0.05-0.651-0.25l-0.65-0.4c-0.467-0.233-0.85-0.4-1.15-0.5 0.033-0.033 0.15-0.05 0.35-0.05-1.434-0.5-2.75-0.917-3.95-1.25-0.033-0.2-0.033-0.383 0-0.55-0.067 0.133-0.117 0.3-0.15 0.5-1.467-0.433-2.75-0.767-3.85-1s-2.467-0.367-4.1-0.4zm-8.2-1.75l-1.35 0.35 0.2-0.45c0.934-0.167 1.684-0.25 2.25-0.25l-0.5 0.15c-0.2 0.033-0.4 0.066-0.6 0.1v0.1zm44.15 0.55l-0.1 1.05c-7.566-0.167-13.45-0.167-17.65 0-3.033 0.1-5.683-0.067-7.95-0.5-2.767-0.633-5.333-1.167-7.7-1.6-3.233-0.567-7.067-0.717-11.5-0.45 0.167-0.367 0.383-0.567 0.65-0.6 0.233-0.067 0.65-0.1 1.25-0.1 2.033-0.067 5.383 0.15 10.05 0.65 2.067 0.233 4.267 0.35 6.6 0.35 1.9 0 3.884 0.133 5.95 0.4 2.434 0.333 3.883 0.517 4.35 0.55 0.033 0 1.917 0.05 5.65 0.15 0.7 0 1.684 0.05 2.95 0.15 1.366 0.133 2.333 0.2 2.899 0.2l4.5 0.15 0.051-0.4zm-1.05 2l0.8 0.1-0.65-0.05-0.15-0.05zm-6.6 4.25h-0.45c-0.033-0.434-0.033-0.667 0-0.7 0.167-0.067 0.8-0.233 1.9-0.5 0.767-0.2 1.366-0.517 1.8-0.95-0.233-0.133-0.2-0.566 0.1-1.3 0.1-0.3 0.134-0.55 0.1-0.75l1.8-0.05 2.15 0.15v0.25l-0.25 2.35-0.1 1.15-0.65 0.15c-0.166 0.033-0.35 0.067-0.55 0.1-0.3-0.133-0.684-0.267-1.15-0.4-0.433-0.133-0.95-0.45-1.55-0.95-0.3 0.2-0.833 0.4-1.6 0.6-0.733 0.167-1.267 0.417-1.6 0.75 0 0.033 0.017 0.067 0.05 0.1zm-26.3 20.65c-2.167-0.166-4.75-0.383-7.75-0.65l-6.4-0.6 0.4-3.95 5.45 0.15-3.05-0.6-2.3-0.45 1.15 0.2 3.1-0.15 0.15 0.05-1.35 0.05c-0.3 0.067-0.533 0.083-0.7 0.05l3.75 0.85 4.4 0.1-4.5-0.9 6.1 0.8c1.867 0.2 4.667 1.067 8.4 2.6 1.167 0.467 2.983 0.583 5.45 0.35 1.666-0.167 5.233-0.617 10.7-1.35 3.166-0.367 6.033-0.45 8.6-0.25l-0.4 4 0.05-0.65v-0.05c-3.667 0.467-6.767 0.899-9.301 1.3l-3.55 0.55 1 0.101c-1.066-0.067-2.083-0.15-3.05-0.25-1.2-0.101-2.316-0.2-3.35-0.301h-0.049c-3.899-0.333-6.866-0.566-8.899-0.699h-0.05l-0.051-0.051c-1.533-0.533-3.45-1.283-5.75-2.25l-3.05-1.3c-2.667 0-5.25 0.1-7.75 0.3l-0.15 1.75 12.75 1.25zm-9.2-6l0.3-0.05 0.15 0.05h-0.45zm-4.3-1.4l0.1-1.25 0.5-0.1c1.133-0.133 1.983-0.2 2.55-0.2h0.7c-0.5 0.033-1.167 0.1-2 0.2l-0.4 0.1-0.15 1.25h-1.3zm0.3-3.2l0.35-3.25c2.733-0.3 5.067-0.45 7-0.45 1.167 1.2 2.567 2.934 4.2 5.2 1.167 1.6 2.317 2.783 3.45 3.55-0.167-0.033-0.333-0.083-0.5-0.15-2.7-0.867-4.883-2-6.55-3.4-1.566-1.333-2.633-2.067-3.2-2.2-0.867-0.2-1.833-0.233-2.9-0.1 0.067-0.167 0.1-0.284 0.1-0.35 0.033-0.267 0.1-0.45 0.2-0.55 0.167-0.233 0.517-0.466 1.05-0.7l1.5-0.45c0.8-0.3 1.217-0.45 1.25-0.45-1.933 0.133-3.383 0.2-4.35 0.2l-0.2 2.35c-0.3 0.033-0.6 0.083-0.9 0.15l-0.45 0.55-0.05 0.05zm3.025-5.3c-0.385 0.01-0.793 0.028-1.225 0.05l-0.1 0.95h-1.25l0.1-0.95c0.951-0.026 1.776-0.043 2.475-0.05zm-2.475-0.3l0.65-6.4h0.05c0.2-0.133 0.4-0.217 0.6-0.25l1.3-0.3-0.85 0.4c0.206-0.023 0.431-0.056 0.675-0.1-0.164 0.042-0.339 0.126-0.525 0.25h-0.05l-0.2 2.35c-0.133 0-0.267 0.017-0.4 0.05 0 0.067-0.05 0.383-0.15 0.95l-0.1 0.6c0.167-0.034 0.333-0.067 0.5-0.1l-0.2 2.35h-0.65c-0.3 0.067-0.517 0.133-0.65 0.2zm0.85-8c1.1-0.3 2.367-0.433 3.8-0.4-0.967 0.033-1.85 0.167-2.65 0.4l-0.05 0.5c-0.1 0-0.2 0.017-0.3 0.05l-0.9 0.3 0.1-0.85zm44.45 4.15c0.167-0.033 0.367-0.05 0.601-0.05l-0.25 2.3c-2.134 0.167-3.967 0.284-5.5 0.35 2.899-0.467 4.633-1.117 5.199-1.95-0.133-0.133-0.166-0.317-0.1-0.55 0-0.033 0.017-0.067 0.05-0.1zm-0.05 6.45l-0.2 1.85v-0.2h-5.45c1 0.167 2.5 0.35 4.5 0.55l0.9 0.15v0.2l-0.15 1.55-0.399-0.1h-4.3l-0.951-0.05c-0.267-0.934-0.917-2-1.95-3.2-0.4-0.267-0.9-0.383-1.5-0.35-0.667 0-1.184-0.117-1.55-0.35-1.033-1.867-2.601-2.767-4.7-2.7-2.033 0.066-3.483 0.883-4.35 2.45-0.301 0.534-0.434 1.184-0.4 1.95-0.434-0.1-0.85-0.2-1.25-0.3-0.233-1.067-0.65-2.25-1.25-3.55-0.467-0.967-0.883-1.816-1.25-2.55 1.3 0.2 2.85 0.433 4.65 0.7l-2.35-0.7c-0.867-0.233-1.733-0.45-2.6-0.65-0.034-0.067-0.067-0.133-0.1-0.2l5.25 1.6c3.101 0.433 6.233 0.733 9.4 0.9-0.167 0.8-0.7 1.333-1.6 1.6 0.133 0.433 0.517 0.8 1.149 1.1 0.667 0.333 1.167 0.383 1.5 0.15-0.133-1.233 0.25-2.15 1.15-2.75 2.666 0.1 5.366 0.083 8.1-0.05l-0.299 2.95zm-0.5 5l-0.1 0.95-0.15 1.7-0.15 1.3-1.65-0.2c-2.134 0.1-3.95 0.2-5.45 0.3 0.2-0.066 0.366-0.133 0.5-0.2 1.134-1.333 1.684-2.617 1.65-3.85 1.866 0.167 3.633 0.3 5.3 0.4l0.05-0.4zm-9.45-8.75c-1.1 0-2.2-0.033-3.3-0.1-2.6-0.133-5.483-0.65-8.65-1.55-1.133-0.333-2.184-0.617-3.15-0.85-0.167-0.333-0.3-0.617-0.4-0.85-0.466-1.066-0.767-1.967-0.9-2.7 0.367 0.133 0.75 0.283 1.15 0.45 0.967 0.4 2.133 0.883 3.5 1.45 0.334 0.2 0.667 0.367 1 0.5 0.167 0.067 0.35 0.117 0.55 0.15 0.067 0.033 0.15 0.05 0.25 0.05l0.101 0.05c1.866 0.433 4.934 0.717 9.2 0.85 0.066 0.233 0.149 0.466 0.25 0.7 0.266 0.7 0.399 1.317 0.399 1.85zm3.8-2.5c-0.033 0.3-0.116 0.6-0.25 0.9-0.3 0.733-0.767 1.083-1.399 1.05 0.7-0.367 1.05-0.9 1.05-1.6v-0.35h0.599zm-23.45-0.7v-0.05l3.1 0.95c0 0.033 0.017 0.083 0.05 0.15l-3.15-1.05zm11.9 10.25c-0.066 0.133-0.116 0.267-0.149 0.4-0.101-0.133-0.2-0.284-0.301-0.45 0.133 0 0.284 0.017 0.45 0.05zm0.3-0.8c-0.333-0.067-0.666-0.15-1-0.25-0.033-0.033-0.05-0.083-0.05-0.15-0.1-0.667-0.116-1.117-0.05-1.35 0.1-0.467 0.4-0.983 0.9-1.55 0.533-0.6 1.3-0.85 2.3-0.75 0.899 0.1 1.616 0.417 2.149 0.95 0.567 0.533 0.684 0.967 0.351 1.3-0.267 0.233-0.601 0.333-1 0.3-0.9-0.167-1.717-0.1-2.45 0.2-0.4 0.167-0.783 0.6-1.15 1.3zm-9.6-2.5c-0.467-0.167-0.917-0.317-1.35-0.45 0-0.233-0.15-0.483-0.45-0.75-0.434-0.233-0.867-0.183-1.3 0.15-0.467-0.133-0.85-0.25-1.15-0.35 0.1 0 0.2-0.017 0.3-0.05 0.167-0.033 0.684-0.283 1.55-0.75-0.167-0.8-0.617-1.117-1.35-0.95-0.7 0.133-1.133 0.483-1.3 1.05 0.1 0.267 0.25 0.467 0.45 0.6-0.1-0.033-0.183-0.067-0.25-0.1-0.133-0.033-0.25-0.066-0.35-0.1-0.233-0.066-0.466-0.117-0.7-0.15-0.027-7e-3 -0.052-0.015-0.075-0.025-0.243-0.057-0.485-0.115-0.725-0.175 0.2-0.133 0.35-0.25 0.45-0.35 0.267-0.333 0.233-0.717-0.1-1.15-0.4-0.1-0.867 0-1.4 0.3-0.467 0.3-0.65 0.617-0.55 0.95-0.534-0.067-1.083-0.133-1.65-0.2-1.066-0.1-2.117-0.167-3.15-0.2-0.367-0.1-0.7-0.133-1-0.1l0.05 0.05c-0.8-0.067-1.567-0.083-2.3-0.05l0.1-0.15c-0.033-0.3-0.033-0.517 0-0.65l0.2-1.65c2-0.333 4.183-0.517 6.55-0.55l0.4 0.7c0.567-0.3 0.95-0.533 1.15-0.7h0.8c-0.033 0.033-0.05 0.066-0.05 0.1 0.2 0.633 0.633 0.833 1.3 0.6 0.4-0.167 0.7-0.367 0.9-0.6 0.6 0.034 1.167 0.067 1.7 0.1-0.133 0.167-0.233 0.35-0.3 0.55 0.2 0.633 0.633 0.833 1.3 0.6 0.566-0.2 0.933-0.5 1.1-0.9 0.667 0.067 1.317 0.167 1.95 0.3 0.2 0.8 0.45 1.667 0.75 2.6 0.367 1.133 0.65 2.167 0.85 3.1-0.2-0.033-0.4-0.083-0.6-0.15 0.133-0.367-0.033-0.767-0.5-1.2l-1.25 0.7zm-6.2-4.05l0.55 1 2.1-1.15c-0.167-0.8-0.617-1.117-1.35-0.95-0.7 0.167-1.133 0.533-1.3 1.1zm4.75 2.65c0.233 0.566 0.6 0.783 1.1 0.65 0.2-0.067 0.717-0.333 1.55-0.8-0.167-0.934-0.617-1.284-1.35-1.05-0.7 0.233-1.133 0.633-1.3 1.2zm-2.3 1.8c0.1 0.167 0.25 0.333 0.45 0.5 0.133-0.066 0.3-0.15 0.5-0.25 0.333 0.067 0.7 0.15 1.1 0.25l-1.2 0.65c0.267 1.333 0.933 1.7 2 1.1 0.733-0.367 0.983-0.816 0.75-1.35 0.1 0 0.2 0.017 0.3 0.05 0.367 0.1 0.75 0.2 1.15 0.3-0.5 0.567-1.133 1.067-1.9 1.5-0.933 0.5-1.833 0.767-2.7 0.8 0.3 0.7 0.733 1.2 1.3 1.5 1.567-0.733 2.95-1.483 4.15-2.25v-1.15c0-0.1-0.017-0.183-0.05-0.25 0.133 0.034 0.283 0.067 0.45 0.1 0.267 1.867 0.133 3.317-0.4 4.35 0.2-0.2 0.5-0.167 0.9 0.1 0.4 0.233 0.4 0.467 0 0.7-2.466 0.6-5.483-0.917-9.05-4.55-1.267-1.3-2.4-2.35-3.4-3.15 0.733 0.033 1.4 0.1 2 0.2 0.033 0 0.083 0.017 0.15 0.05l0.4 0.65 0.75-0.4c0.3 0.066 0.684 0.15 1.15 0.25-0.233 0.1-0.75 0.367-1.55 0.8 0.2 0.8 0.667 1.117 1.4 0.95 0.667-0.133 1.083-0.5 1.25-1.1-0.066-0.167-0.15-0.3-0.25-0.4 0.1 0 0.217 0.017 0.35 0.05zm9.15 2.15c0.399 0.067 0.8 0.15 1.199 0.25 0.167 0.8 0.483 1.733 0.95 2.8 0.9 2.033 1.434 3.566 1.601 4.6l-2.2 0.25c-0.667-0.034-1.367-0.117-2.1-0.25 0.1-0.1 0.2-0.217 0.3-0.35-0.3-0.367-0.517-0.883-0.65-1.55-0.1-0.633-0.35-1.167-0.75-1.6 1.267-0.933 1.816-2.317 1.65-4.15zm-4.35 3.4c0.4-0.167 0.7-0.567 0.9-1.2 0.167-0.633 0.066-0.917-0.3-0.85 0.067 0.434-0.433 0.85-1.5 1.25-1.033 0.367-1.5 0.617-1.4 0.75 0.233-0.1 0.6-0.033 1.1 0.2 0.433 0.167 0.833 0.117 1.2-0.15zm-15.25 0.2h0.4c1.167 0 2.066 0.083 2.7 0.25l1.15 0.3c0.067 0.033 0.117 0.083 0.15 0.15-0.034 0-0.7-0.15-2-0.45-0.567-0.133-1.367-0.217-2.4-0.25zm5.7-7.45c-0.167 0.033-0.35 0.017-0.55-0.05h0.45c0.033 0 0.067 0.017 0.1 0.05zm8.5-2.2c-0.167-0.8-0.617-1.133-1.35-1-0.667 0.167-1.1 0.533-1.3 1.1l0.6 1 2.05-1.1zm-3.85 7.3c1.2-0.4 1.4-1.083 0.6-2.05l-1.7 0.95c0.1 0.233 0.284 0.417 0.55 0.55 0.267 0.167 0.45 0.35 0.55 0.55zm-5.4-8.4c0.4 1.133 1.233 1.267 2.5 0.4l-0.8-1.35-1.7 0.95zm19 15.45c0.134-0.033 0.283-0.05 0.45-0.05l1.4-0.05c-0.767 0.1-1.5 0.183-2.199 0.25 0.099-0.067 0.215-0.117 0.349-0.15zm-0.55 0.05v0.15c-1.134 0.067-2.167 0.1-3.101 0.1 0.934-0.033 1.967-0.117 3.101-0.25zm-7.65-0.7h-0.05c-0.233-0.067-0.433-0.117-0.6-0.15-0.066-0.033-0.133-0.05-0.2-0.05 0.133-0.067 0.35-0.05 0.65 0.05 0.033 0.034 0.066 0.067 0.1 0.1 0.032 0.032 0.066 0.049 0.1 0.05zm-0.8-0.85c-0.367-0.1-0.717-0.184-1.05-0.25 0.267-0.033 0.533-0.1 0.8-0.2 0.067 0.167 0.15 0.317 0.25 0.45zm3.6 1.3c0.533 0.067 1.016 0.117 1.45 0.15h-0.55c-0.333 0-0.683-0.017-1.05-0.05 0.033-0.033 0.083-0.067 0.15-0.1z" fill="#C5AA6B"/>
	<path d="m2.95 0.25l3.75-0.25 18.9 1.15c1.534 0.067 4.617 0.233 9.25 0.5 4.733 0.3 7.601 0.517 8.601 0.65l6.949 0.7-3.2 0.45c-5.267-0.3-8.884-0.567-10.851-0.8-9.165-0.633-14.966-1.05-17.399-1.25l-16-1.15z" fill="#968251"/>
	<path d="m35.9 9.95v-0.05c-0.301-1.566 0.05-2.683 1.05-3.35 1.1 0.867 2.184 1.767 3.25 2.7 0.233-0.433-0.117-0.883-1.05-1.35 0.633-0.867 1.466-1.566 2.5-2.1 0.466-0.267 1-0.483 1.6-0.65 0.3 0.167 0.5 0.367 0.6 0.6 0 0.067 0.017 0.15 0.051 0.25 0.033 0.2 0 0.45-0.101 0.75-0.3 0.733-0.333 1.167-0.1 1.3-0.433 0.433-1.033 0.75-1.8 0.95-1.1 0.267-1.733 0.433-1.9 0.5-0.033 0.033-0.033 0.267 0 0.7v1.15c0 0.7-0.35 1.233-1.05 1.6 0.633 0.033 1.1-0.317 1.399-1.05 0.134-0.3 0.217-0.6 0.25-0.9 0-0.267-0.05-0.533-0.149-0.8-0.033-0.034-0.05-0.067-0.05-0.1 0.333-0.333 0.866-0.583 1.6-0.75 0.767-0.2 1.3-0.4 1.6-0.6 0.601 0.5 1.117 0.817 1.551 0.95 0.465 0.133 0.849 0.267 1.149 0.4 0.2 0.066 0.384 0.133 0.55 0.2 0.034 0.067 0.017 0.233-0.05 0.5-0.033 0.034-0.05 0.067-0.05 0.1-0.066 0.233-0.033 0.417 0.1 0.55-0.566 0.833-2.3 1.483-5.199 1.95-0.101 0-0.217 0.017-0.351 0.05-1 0.167-1.783 0.466-2.35 0.9-0.9 0.6-1.283 1.517-1.15 2.75-0.333 0.233-0.833 0.183-1.5-0.15-0.633-0.3-1.017-0.667-1.149-1.1 0.899-0.267 1.433-0.8 1.6-1.6 0.033-0.233 0.05-0.483 0.05-0.75 0-0.533-0.133-1.15-0.399-1.85-0.101-0.233-0.184-0.467-0.25-0.7-0.067-0.2-0.117-0.4-0.15-0.6-0.035-0.133-0.068-0.267-0.102-0.4zm-23.75-4.8c-0.267 0.367-0.467 0.633-0.6 0.8 0.167 0.133 0.55-0.017 1.15-0.45 0.466-0.367 0.85-0.2 1.15 0.5-0.133 0.067-0.233 0.15-0.3 0.25-0.167 0.133-0.233 0.283-0.2 0.45-1.533-0.034-2.684 0.6-3.45 1.9-0.433-0.3-0.783-0.4-1.05-0.3-0.167-0.466-0.067-0.767 0.3-0.9 0.2-0.1 0.6-0.217 1.2-0.35-0.133-0.233-0.45-0.333-0.95-0.3h-0.1c-0.5 0.033-0.816-0.233-0.95-0.8 0.6-0.1 0.95-0.233 1.05-0.4 0.033-0.033 0.033-0.15 0-0.35 0-0.167-0.017-0.383-0.05-0.65 0.433-0.267 0.9-0.25 1.4 0.05 0.367 0.2 0.717 0.017 1.05-0.55 0.4 0.367 0.517 0.733 0.35 1.1zm7.8 2.15c0.033-0.267 0.083-0.517 0.15-0.75 0.033-0.2 0.083-0.367 0.15-0.5-0.033 0.167-0.033 0.35 0 0.55 0 0.233 0.05 0.517 0.15 0.85 0.133 0.733 0.434 1.633 0.9 2.7 0.1 0.233 0.233 0.517 0.4 0.85 0.133 0.233 0.267 0.483 0.4 0.75 0.033 0.067 0.066 0.133 0.1 0.2v0.05c0 0.033 0.017 0.067 0.05 0.1 0.067 0.167 0.15 0.333 0.25 0.5 0.367 0.733 0.783 1.583 1.25 2.55 0.6 1.3 1.017 2.483 1.25 3.55 0.066 0.367 0.116 0.733 0.15 1.1 0.166 1.833-0.384 3.217-1.65 4.15 0.4 0.433 0.65 0.966 0.75 1.6 0.133 0.667 0.35 1.184 0.65 1.55-0.1 0.133-0.2 0.25-0.3 0.35-0.167 0.167-0.333 0.316-0.5 0.45-0.067 0.033-0.117 0.067-0.15 0.1-0.167 0.1-0.35 0.2-0.55 0.3-0.4 0.133-0.816 0.233-1.25 0.3-0.066-0.2-0.167-0.383-0.3-0.55-0.167-0.233-0.35-0.433-0.55-0.6-0.034-1e-3 -0.067-0.018-0.1-0.05-0.034-0.033-0.067-0.066-0.1-0.1-0.267-0.233-0.467-0.466-0.6-0.7-0.1-0.133-0.183-0.283-0.25-0.45-0.267 0.1-0.533 0.167-0.8 0.2-1.133 0.1-2.3-0.25-3.5-1.05-1.133-0.767-2.284-1.95-3.45-3.55-1.633-2.267-3.033-4-4.2-5.2-0.2-0.233-0.4-0.433-0.6-0.6-0.4-0.4-0.75-0.717-1.05-0.95-0.367-0.267-0.683-0.433-0.95-0.5l-0.05-0.05c0.3-0.034 0.633 0 1 0.1 0.5 0.1 1.067 0.333 1.7 0.7 0.333 0.167 0.7 0.383 1.1 0.65 0.267 0.2 0.566 0.434 0.9 0.7 1 0.8 2.133 1.85 3.4 3.15 3.567 3.633 6.583 5.15 9.05 4.55 0.4-0.233 0.4-0.466 0-0.7-0.4-0.267-0.7-0.3-0.9-0.1 0.533-1.033 0.667-2.483 0.4-4.35-0.066-0.4-0.133-0.816-0.2-1.25-0.2-0.933-0.483-1.967-0.85-3.1-0.3-0.933-0.55-1.8-0.75-2.6-0.067-0.2-0.117-0.383-0.15-0.55-0.033-0.1-0.05-0.2-0.05-0.3-0.033-0.067-0.05-0.117-0.05-0.15-0.033-0.2-0.067-0.4-0.1-0.6-0.233-1.3-0.3-2.4-0.2-3.3zm9 21v-0.15s0-0.083 0-0.15c0-0.167-0.017-0.35-0.05-0.55-0.167-1.034-0.7-2.567-1.601-4.6-0.467-1.067-0.783-2-0.95-2.8-0.066-0.367-0.1-0.716-0.1-1.05-0.033-0.767 0.1-1.417 0.4-1.95 0.866-1.566 2.316-2.383 4.35-2.45 2.1-0.067 3.667 0.833 4.7 2.7 0.366 0.233 0.883 0.35 1.55 0.35 0.6-0.033 1.1 0.083 1.5 0.35 1.033 1.2 1.684 2.267 1.95 3.2 0 0.066 0.017 0.15 0.05 0.25 0 0.033 0.017 0.083 0.05 0.15v0.05c0.033 0.2 0.066 0.4 0.101 0.6 0.033 1.233-0.517 2.517-1.65 3.85-0.134 0.066-0.3 0.133-0.5 0.2-1 0.333-2.566 0.6-4.7 0.8-1.8 0.167-3.25 0.467-4.35 0.9l-0.2 0.1c-0.134 0.033-0.25 0.083-0.35 0.15-0.101 0.067-0.184 0.117-0.25 0.15 0-0.033 0.017-0.067 0.05-0.1zm-14.8-20.2c-0.733 0.4-1.167 0.167-1.3-0.7 0.667-0.467 1.316-0.667 1.95-0.6 0.333 0.467 0.117 0.9-0.65 1.3zm-3.05-0.6c0.733-0.533 1.333-0.283 1.8 0.75l-1.35 0.75c-0.233-0.233-0.35-0.5-0.35-0.8l-0.1-0.7zm1.05 2.55l-0.05-0.1-0.25-0.4-0.1-0.2c0.6-0.467 1.233-0.667 1.9-0.6l0.4 0.65c-0.033 0.067-0.066 0.117-0.1 0.15-0.034 0.1-0.083 0.184-0.15 0.25-0.233 0.3-0.533 0.55-0.9 0.75-0.133 0.034-0.267 0.083-0.4 0.15l-0.1-0.2-0.25-0.45zm5 0.2v0.05c-0.033 0.233-0.15 0.45-0.35 0.65-0.233 0.2-0.583 0.4-1.05 0.6l-0.5-0.8-0.3-0.55 0.75-0.35 0.2-0.1 0.8-0.45c0.2 0.233 0.333 0.45 0.4 0.65 0.033 0.1 0.05 0.2 0.05 0.3zm0.45 0.85c0.2 0.033 0.417 0.066 0.65 0.1 0.167 0.1 0.283 0.283 0.35 0.55 0 0.033-0.017 0.083-0.05 0.15-0.167 0.4-0.533 0.7-1.1 0.9-0.667 0.233-1.1 0.034-1.3-0.6 0.067-0.2 0.167-0.383 0.3-0.55 0.2-0.2 0.483-0.367 0.85-0.5 0.1-0.033 0.2-0.05 0.3-0.05zm10.75 8.4c0.034 0.367 0.117 0.7 0.25 1 0.101 0.167 0.2 0.317 0.301 0.45 0.033-0.133 0.083-0.267 0.149-0.4 0.066-0.233 0.15-0.466 0.25-0.7 0.033-0.033 0.05-0.067 0.05-0.1 0.367-0.7 0.75-1.133 1.15-1.3 0.733-0.3 1.55-0.367 2.45-0.2 0.399 0.033 0.733-0.067 1-0.3 0.333-0.333 0.217-0.767-0.351-1.3-0.533-0.533-1.25-0.85-2.149-0.95-1-0.1-1.767 0.15-2.3 0.75-0.5 0.566-0.801 1.083-0.9 1.55-0.066 0.233-0.05 0.683 0.05 1.35 0 0.067 0.016 0.117 0.05 0.15zm-12.35-1.85c-0.2-0.367-0.1-0.75 0.3-1.15 0.1-0.133 0.217-0.233 0.35-0.3 0.434-0.333 0.867-0.383 1.3-0.15 0.3 0.267 0.45 0.517 0.45 0.75 0 0.2-0.117 0.383-0.35 0.55-0.466 0.2-0.833 0.383-1.1 0.55-0.2 0.1-0.367 0.184-0.5 0.25-0.2-0.167-0.35-0.333-0.45-0.5zm3.75-0.4l1.25-0.7c0.467 0.434 0.633 0.833 0.5 1.2-0.067 0.233-0.267 0.433-0.6 0.6-0.833 0.467-1.383 0.183-1.65-0.85l0.5-0.25zm-1.45-1.4c0.167-0.567 0.6-0.967 1.3-1.2 0.733-0.233 1.183 0.117 1.35 1.05-0.833 0.466-1.35 0.733-1.55 0.8-0.5 0.133-0.867-0.083-1.1-0.65zm-4.75-2.65c0.167-0.567 0.6-0.934 1.3-1.1 0.733-0.167 1.183 0.15 1.35 0.95l-2.1 1.15-0.55-1zm4.5 4.95l0.85-0.45c0.333 0.3 0.567 0.583 0.7 0.85 0.233 0.534-0.017 0.983-0.75 1.35-1.067 0.6-1.733 0.233-2-1.1l1.2-0.65zm3 0.75c0.067-0.1 0.133-0.2 0.2-0.3 0.3 0.066 0.5 0.217 0.6 0.45 0.033 0.067 0.05 0.15 0.05 0.25v1.15c-1.2 0.767-2.583 1.517-4.15 2.25-0.567-0.3-1-0.8-1.3-1.5 0.867-0.034 1.767-0.3 2.7-0.8 0.767-0.433 1.4-0.933 1.9-1.5zm-0.25 4.3c-0.367 0.267-0.767 0.316-1.2 0.15-0.5-0.233-0.867-0.3-1.1-0.2-0.1-0.133 0.367-0.383 1.4-0.75 1.067-0.4 1.567-0.816 1.5-1.25 0.367-0.066 0.467 0.217 0.3 0.85-0.2 0.633-0.5 1.033-0.9 1.2zm-6.05-11.65c-0.2 0.233-0.5 0.434-0.9 0.6-0.667 0.233-1.1 0.033-1.3-0.6 0-0.033 0.017-0.066 0.05-0.1 0.167-0.367 0.483-0.65 0.95-0.85 0.034-0.033 0.083-0.067 0.15-0.1 0.5-0.2 0.883-0.133 1.15 0.2 0.066 0.066 0.117 0.183 0.15 0.35-0.067 0.167-0.15 0.333-0.25 0.5zm-2.95-0.1c-0.2 0.167-0.583 0.4-1.15 0.7l-0.4-0.7-0.4-0.65c0.167-0.133 0.333-0.233 0.5-0.3h0.1c0.066-0.033 0.133-0.05 0.2-0.05h0.2c0.4 0.033 0.717-0.05 0.95-0.25 0.067 0.1 0.133 0.2 0.2 0.3 0.133 0.3 0.1 0.583-0.1 0.85l-0.1 0.1zm1.975 3.925c0.023 0.01 0.048 0.018 0.075 0.025 0.233 0.033 0.467 0.083 0.7 0.15 0.2 0.167 0.333 0.434 0.4 0.8l-1.3 0.75-0.75 0.4-0.4-0.65-0.2-0.35c0.167-0.567 0.6-0.933 1.3-1.1 0.048-0.024 0.106-0.032 0.175-0.025zm-0.725-0.175c-0.233 0.133-0.5 0.283-0.8 0.45-0.133-0.4-0.383-0.566-0.75-0.5-0.033-0.066-0.05-0.133-0.05-0.2-0.1-0.333 0.083-0.65 0.55-0.95 0.533-0.3 1-0.4 1.4-0.3 0.333 0.433 0.367 0.816 0.1 1.15-0.1 0.1-0.25 0.217-0.45 0.35zm2.6 2.4c0.1 0.1 0.184 0.233 0.25 0.4-0.167 0.6-0.583 0.967-1.25 1.1-0.733 0.167-1.2-0.15-1.4-0.95 0.8-0.433 1.317-0.7 1.55-0.8 0.367-0.1 0.65-0.017 0.85 0.25zm-0.15-1.75c-0.133-0.033-0.25-0.067-0.35-0.1-0.2-0.133-0.35-0.333-0.45-0.6 0.167-0.566 0.6-0.917 1.3-1.05 0.733-0.167 1.183 0.15 1.35 0.95-0.867 0.467-1.383 0.717-1.55 0.75-0.1 0.033-0.2 0.05-0.3 0.05zm-6.1-6.15c0.067-0.2 0.217-0.417 0.45-0.65 0.5-0.433 0.883-0.483 1.15-0.15 0.267 0.233 0.367 0.45 0.3 0.65-0.066 0.133-0.233 0.267-0.5 0.4-0.566 0.267-1 0.333-1.3 0.2-0.133-0.133-0.167-0.283-0.1-0.45zm5.8-0.05c-0.3 0.1-0.617 0.133-0.95 0.1v-0.15c-0.033-0.4 0-0.717 0.1-0.95 0.167-0.367 0.5-0.65 1-0.85l0.8 1.35c-0.3 0.233-0.617 0.4-0.95 0.5zm4.55 4.1l-2.05 1.1-0.6-1c0.2-0.567 0.633-0.934 1.3-1.1 0.733-0.133 1.183 0.2 1.35 1zm-9.25-1.1l1.7-0.95 0.8 1.35c-1.267 0.867-2.1 0.733-2.5-0.4zm5.4 8.4c-0.1-0.2-0.283-0.383-0.55-0.55-0.267-0.133-0.45-0.317-0.55-0.55l1.7-0.95c0.8 0.967 0.6 1.65-0.6 2.05z" fill="#625027"/>
	<path d="m14.15 30.85l-0.25-0.1c-0.833-0.333-1.45-0.583-1.85-0.75-0.7-0.3-1.333-0.5-1.9-0.6-0.433-0.067-0.983-0.117-1.65-0.15-0.867 0-1.417-0.017-1.65-0.05 1.1-0.333 2.533-0.383 4.3-0.15 0.8 0.134 1.383 0.267 1.75 0.4 0.067 0.033 0.5 0.283 1.3 0.75 0.533 0.333 0.983 0.483 1.35 0.45l0.4 0.35-1.8-0.15zm32.1-8.6c-2.366-0.267-4.184-0.483-5.45-0.65-0.033-0.067-0.05-0.117-0.05-0.15 0.233-0.133 0.533-0.2 0.9-0.2h4.3l0.399 0.1v0.05l-0.05 0.45-0.049 0.4zm-0.85 8.25l-0.051 0.65-0.1 1c-2.467 0-4.767 0.166-6.9 0.5l2.551-0.75c0.199-0.067 0.649-0.25 1.35-0.551 0.533-0.233 0.983-0.383 1.35-0.449l1.8-0.4zm-24.6-25.7c0.8 0.067 1.883 0.217 3.25 0.45l11.5 0.15c-2.366 0.267-4.233 0.417-5.6 0.45-2.533 0.1-4.884-0.033-7.05-0.4-0.4-0.034-0.783-0.083-1.15-0.15-0.667-0.133-1.1-0.283-1.3-0.45l-0.1-0.05-0.05-0.05c0.167 0 0.333 0.017 0.5 0.05zm4.25 4.55c-0.667-0.367-1.316-0.833-1.95-1.4 0.066-0.067 0.2-0.1 0.4-0.1 0.1 0 0.217 0.017 0.35 0.05 0.3 0.1 0.683 0.267 1.15 0.5l0.65 0.4c0.367 0.2 0.583 0.283 0.65 0.25l9.5 1.1c-1 0.167-2.033 0.267-3.1 0.3-0.967 0-1.967-0.034-3-0.1-1.167-0.033-2.084-0.117-2.75-0.25l-0.101-0.05c-0.1 0-0.183-0.017-0.25-0.05-0.199-0.033-0.383-0.083-0.55-0.15-0.332-0.133-0.665-0.3-0.999-0.5zm-2.8 2.75c-0.033-0.033-0.05-0.067-0.05-0.1l2.15 0.7-0.35-0.1c-0.567-0.167-1.15-0.333-1.75-0.5zm-1.9-0.45c-0.6-0.133-1.217-0.267-1.85-0.4-0.1-0.033-0.183-0.05-0.25-0.05-0.233-0.034-0.45-0.067-0.65-0.1-0.267-0.067-0.533-0.117-0.8-0.15 0.2-0.2 0.317-0.417 0.35-0.65l3.15 1.05c0 0.1 0.017 0.2 0.05 0.3zm-8.2-1.6l0.25 0.45h-0.4c-0.067-0.1-0.133-0.2-0.2-0.3-0.233 0.2-0.55 0.283-0.95 0.25h-0.2c0.267-0.067 0.65-0.184 1.15-0.35 0.1-0.033 0.217-0.05 0.35-0.05zm1.65-0.25h1.85l0.05 0.05-0.75 0.35 0.3 0.55c-0.133-0.033-0.267-0.05-0.4-0.05-0.267-0.333-0.65-0.4-1.15-0.2-0.067 0.033-0.117 0.067-0.15 0.1-0.233-0.033-0.45-0.05-0.65-0.05 0.367-0.2 0.667-0.45 0.9-0.75zm-9.25-6.6c0.6-0.1 1.083-0.15 1.45-0.15l-2.2 0.7 0.15-0.35v-0.1c0.2-0.033 0.4-0.067 0.6-0.1zm1.6 3.05c0.533 0 1.1 0.017 1.7 0.05-1.2 0.267-2.4 0.567-3.6 0.9l-0.85 0.3 0.05-0.35 0.05-0.5c0.8-0.233 1.683-0.367 2.65-0.4zm5.1 9.7c-0.033-0.034-0.067-0.05-0.1-0.05h-1.7c-0.4-0.267-0.767-0.483-1.1-0.65 0.367 0.033 0.783 0.1 1.25 0.2 0.5 0.133 1.25 0.25 2.25 0.35-0.167 0.167-0.367 0.217-0.6 0.15zm-8.6 0l0.1-0.95c0.432-0.022 0.84-0.04 1.225-0.05h0.525c0.867 0 1.583 0.017 2.15 0.05 0.3 0.233 0.65 0.55 1.05 0.95h-5.05zm7.15 8l-1.15-0.3c-0.633-0.167-1.533-0.25-2.7-0.25h-0.95l-3.05 0.05 0.15-1.25 0.4-0.1c0.833-0.1 1.5-0.167 2-0.2h0.35c0.967 0 1.633 0.067 2 0.2 0.333 0.1 0.85 0.316 1.55 0.65 0.867 0.267 1.55 0.717 2.05 1.35l-0.65-0.15zm20.15 4.1c-0.167 0-0.316 0.017-0.45 0.05l0.2-0.1h0.3c-0.033 1e-3 -0.05 0.018-0.05 0.05zm-8.65-0.6c0.2 0.167 0.383 0.367 0.55 0.6-0.333-0.1-0.617-0.183-0.85-0.25-0.633-0.133-0.967-0.316-1-0.55 0.1-0.033 0.25-0.033 0.45 0 0.066 0 0.133 0.017 0.2 0.05 0.167 0.034 0.367 0.083 0.6 0.15h0.05zm7.65 0.7c-1.134 0.133-2.167 0.217-3.101 0.25-0.899 0.033-1.716 0-2.45-0.1 0.2-0.1 0.383-0.2 0.55-0.3 0.367 0.033 0.716 0.05 1.05 0.05h0.85l3.101-0.05v0.15z" fill="#96814F"/>
	<path d="m45.35 31.15l0.4-4 0.1-0.95 0.15-1.3c0.134 0.5 0.2 1.434 0.2 2.8 0 1-0.101 1.967-0.3 2.899-0.167 0.601-0.134 1.233 0.1 1.9l0.15 0.5-0.5 0.25-0.55 0.251 0.15-1.35 0.1-1z" fill="#493E27"/>
	<path d="m21.6 56.45h-1.6l-0.45-0.8c-1-1.367-1.383-2.817-1.15-4.351 1.167-7.033 1.833-10.75 2-11.149 0.133-0.334 0.55-1.051 1.25-2.15 0.934-1.2 1.517-2.134 1.75-2.8l0.2-1-1.15-0.6-0.2 0.551c-0.2 0.866-0.533 1.483-1 1.85-0.633 0.467-1.083 0.833-1.35 1.1-0.5 0.5-0.85 1.084-1.05 1.75l-0.35 1.7c-0.767 5.7-1.217 8.617-1.35 8.75-0.033-0.333 0.117-2.033 0.45-5.1 0.367-3.167 0.55-4.867 0.55-5.101 0-0.733 0.167-1.5 0.5-2.3 0.4-0.934 0.9-1.7 1.5-2.3 0.267-0.3 0.667-0.717 1.2-1.25-1.167-0.366-2.283-0.6-3.35-0.7l0.05-0.7c1 0.034 2.15 0.167 3.45 0.4 0.2 0.033 1.333 0.283 3.4 0.75 0.833 0.167 1.517 0.333 2.05 0.5-0.101 0.833-0.184 1.634-0.25 2.4-0.233-0.067-0.533-0.233-0.9-0.5l-0.649-0.45-0.051 0.8v-0.8l-1.399-0.7-0.2 1.65c-0.133 0.699-0.417 1.767-0.85 3.199-0.167 0.667-0.967 4.101-2.4 10.301-0.233 0.767-0.35 1.8-0.35 3.1 0 0.167-0.017 0.5-0.05 1 0 0.434 0.066 0.733 0.2 0.9 0.133 0.233 0.35 0.283 0.65 0.149 0.267-0.1 0.466-0.267 0.6-0.5 0.2-0.366 0.267-0.899 0.2-1.6-0.067-0.967-0.1-1.517-0.1-1.65 0.5 0.4 0.783 0.684 0.85 0.851 0.1 0.166 0.15 0.767 0.15 1.8l-0.3 2.95-0.501 0.05zm-5.55-0.9c-0.066-0.066-0.133-0.116-0.2-0.149l0.65-1.95c-0.033 0.533 0.017 1.366 0.15 2.5-0.233-0.201-0.433-0.335-0.6-0.401zm8.35 1.15c-0.1 0-0.183-0.017-0.25-0.05-0.167-0.034-0.333-0.051-0.5-0.051l-0.5-0.1c0.3-0.533 0.583-1.483 0.85-2.85 0.094-0.533 0.144-1.542 0.15-3.025 0.013 0.696 0.063 1.554 0.15 2.575 0.1 1.568 0.133 2.735 0.1 3.501z" fill="#7D6742"/>
	<path d="m16.65 55.95c-0.133-1.134-0.183-1.967-0.15-2.5l-0.65 1.95c0.066 0.033 0.133 0.083 0.2 0.149-0.3-0.166-0.6-0.283-0.9-0.35h-0.1c0.233-2.4 0.467-4.25 0.7-5.55 0.267-1.534 0.75-5.233 1.45-11.101l0.9-7.399h0.05l-0.1 0.699-0.05 0.702c1.067 0.101 2.183 0.334 3.35 0.7-0.533 0.533-0.934 0.95-1.2 1.25-0.6 0.6-1.1 1.366-1.5 2.3-0.333 0.8-0.5 1.566-0.5 2.3 0 0.233-0.183 1.934-0.55 5.101-0.333 3.066-0.483 4.767-0.45 5.1 0.133-0.133 0.583-3.05 1.35-8.75l0.35-1.7c0.2-0.666 0.55-1.25 1.05-1.75 0.267-0.267 0.717-0.633 1.35-1.1 0.467-0.366 0.8-0.983 1-1.85l0.2-0.551 1.15 0.6-0.2 1c-0.233 0.666-0.816 1.6-1.75 2.8-0.7 1.1-1.117 1.816-1.25 2.15-0.167 0.399-0.833 4.116-2 11.149-0.233 1.533 0.15 2.983 1.15 4.351l0.45 0.8h-0.15l-3.1-0.45c-0.033-0.033-0.067-0.05-0.1-0.05zm7 0.65c-0.667-0.1-1.35-0.149-2.05-0.149l0.5-0.05 0.3-2.95c0-1.033-0.05-1.634-0.15-1.8-0.067-0.167-0.35-0.45-0.85-0.851 0 0.134 0.033 0.684 0.1 1.65 0.067 0.7 0 1.233-0.2 1.6-0.133 0.233-0.333 0.4-0.6 0.5-0.3 0.134-0.517 0.084-0.65-0.149-0.133-0.167-0.2-0.467-0.2-0.9 0.033-0.5 0.05-0.833 0.05-1 0-1.3 0.117-2.333 0.35-3.1 1.433-6.2 2.233-9.634 2.4-10.301 0.434-1.433 0.717-2.5 0.85-3.199l0.2-1.65 1.399 0.7v0.8l0.051-0.8 0.65 0.449c0.367 0.267 0.667 0.433 0.9 0.5-1.267 11.866-1.95 18.449-2.05 19.75l-0.1 1.1c-0.033-0.033-0.083-0.05-0.15-0.05 0.033-0.767 0-1.934-0.1-3.5-0.087-1.021-0.137-1.879-0.15-2.575-6e-3 1.483-0.056 2.492-0.15 3.025-0.267 1.366-0.55 2.316-0.85 2.85l0.5 0.1z" fill="#957C50"/>
	<path d="m18.15 31.15h0.05c2.033 0.133 5 0.366 8.899 0.699-0.066 0.567-0.116 1.117-0.149 1.65-0.533-0.167-1.217-0.333-2.05-0.5-2.066-0.467-3.2-0.717-3.4-0.75-1.3-0.233-2.45-0.366-3.45-0.4l0.1-0.699z" fill="#645335"/>
	<path d="m30.05 36.9c-0.032 0.129-0.049 0.263-0.05 0.399-0.2 0.7-0.333 1.25-0.4 1.65-1.166 7.935-1.75 12.151-1.75 12.651v1.15c0.034 0.467 0.084 0.85 0.15 1.15 0.134-0.367 0.217-0.65 0.25-0.851 0-1.333 0.083-2.333 0.25-3l0.8-4.95c-0.133 1.567-0.283 3.317-0.45 5.25-0.033 0.034-0.05 0.084-0.05 0.15-0.033 0.267-0.05 0.55-0.05 0.85-0.1 0.934-0.184 1.917-0.25 2.95-0.033 0.066-0.05 0.15-0.05 0.25-0.367 0.134-0.717 0.367-1.05 0.7-0.233 0.1-0.483 0.217-0.75 0.35l-0.25-2.1c-0.067-0.533 0.316-4.517 1.149-11.95 0.066-0.467 0.2-1.066 0.4-1.8 0.267-0.866 0.434-1.45 0.5-1.75l0.25-1.85 0.45 0.05 0.901 0.701zm-4.15 19.1c-0.367 0.2-0.767 0.45-1.2 0.75h-0.15l0.1-1.1c0.1-1.301 0.784-7.884 2.05-19.75 0.066-0.767 0.149-1.567 0.25-2.4 0.033-0.533 0.083-1.083 0.149-1.65h0.051l-0.15 1.5-0.25 2.75h0.5c-0.033 0.334-0.15 1.134-0.35 2.4-0.2 0.967-0.284 1.75-0.25 2.35 0.033 0.767-0.084 3.101-0.351 7-0.267 4-0.399 6.334-0.399 7v1.15z" fill="#6E5A3C"/>
	<path d="m27.15 31.85c1.033 0.101 2.149 0.2 3.35 0.301l-0.2 2.3h-0.05c-1.366-0.734-2.45-1.101-3.25-1.101l0.15-1.5z" fill="#4A3E29"/>
	<path d="m30 37.3c2e-3 -0.068 0.019-0.118 0.05-0.149l-0.75 7.949-0.8 4.95c-0.167 0.667-0.25 1.667-0.25 3-0.033 0.2-0.116 0.483-0.25 0.851-0.066-0.301-0.116-0.684-0.15-1.15v-1.151c0-0.5 0.584-4.716 1.75-12.649 0.067-0.401 0.2-0.951 0.4-1.651zm0.05-0.4l-0.899-0.7-0.45-0.05-0.251 1.85c-0.066 0.3-0.233 0.884-0.5 1.75-0.2 0.733-0.334 1.333-0.4 1.8-0.833 7.434-1.217 11.417-1.149 11.95l0.25 2.1-0.101 0.05-0.149 0.1-0.501 0.25v-1.15c0-0.666 0.133-3 0.399-7 0.267-3.899 0.384-6.233 0.351-7-0.034-0.6 0.05-1.383 0.25-2.35 0.199-1.267 0.316-2.066 0.35-2.4h-0.5l0.25-2.75c0.8 0 1.884 0.367 3.25 1.101h0.05l-0.2 2.5-0.05-0.051z" fill="#584930"/>
	<linearGradient id="c" x1="16.763" x2="35.838" y1="54.127" y2="54.127" gradientUnits="userSpaceOnUse">
		<stop stop-opacity=".149" offset="0"/>
		<stop stop-opacity=".149" offset=".8588"/>
		<stop stop-opacity=".149" offset="1"/>
	</linearGradient>
	<path d="m28.85 50.35c0.434 0 0.884 0.034 1.351 0.101 1.133 0.133 1.8 0.217 2 0.25 0.899 0.2 1.383 0.517 1.45 0.95h1c0.433 0.033 0.733 0.116 0.899 0.25 0.267 0.233 0.351 0.583 0.25 1.05-0.066 0.5-0.25 0.833-0.55 1-0.3 0.166-0.767 0.333-1.4 0.5-0.699 0.166-1.199 0.283-1.5 0.35-0.466 0.099-0.85 0.199-1.15 0.299 0.066-0.1 0.116-0.199 0.149-0.3 0-0.399 0.017-0.684 0.051-0.85 0.399-0.033 0.733-0.167 1-0.4 0.267-0.267 0.333-0.6 0.199-1-0.199-0.666-0.916-1.233-2.149-1.7-0.634-0.233-1.184-0.35-1.65-0.35 0-0.066 0.016-0.116 0.05-0.15zm-0.35 3.95c0.066-1.033 0.15-2.017 0.25-2.95h0.05c0.467 0.167 0.75 0.434 0.851 0.801 0.166 0.466 0.199 0.833 0.1 1.1-0.168 0.499-0.584 0.849-1.251 1.049zm-1.95 1.35c0.3 0.033 0.733 0.116 1.3 0.25 0.534 0.133 0.983 0.199 1.351 0.199-0.267 0.233-0.434 0.367-0.5 0.4-0.334 0.267-0.816 0.384-1.45 0.35-0.7 0-1.184 0.067-1.45 0.2-0.3 0.2-0.5 0.334-0.6 0.4-0.2 0.133-0.434 0.2-0.7 0.2h-1.25v-0.5c-0.034-0.132-0.118-0.249-0.251-0.349-0.233-0.2-0.75-0.283-1.55-0.25-0.667 0.033-1.184 0.117-1.55 0.25-0.2 0.066-0.55 0.283-1.05 0.65-0.434 0.333-0.8 0.483-1.1 0.45-0.3-0.101-0.55-0.15-0.75-0.15-0.1-0.333 0.117-0.566 0.65-0.7l1.2-0.1c0.133 0 0.467-0.05 1-0.15 0.333-0.066 0.483-0.184 0.45-0.35h1.3c0.7 0 1.383 0.05 2.05 0.149 0.167 0 0.333 0.017 0.5 0.051 0.067 0.033 0.15 0.05 0.25 0.05 0.067 0 0.117 0.017 0.15 0.05h0.15c0.033 0.033 0.083 0.05 0.15 0.05h0.8c0.433 0 0.666-0.017 0.699-0.05 0.101-0.1 0.117-0.434 0.051-1l0.15-0.1z" fill="url(#c)"/>
	<linearGradient id="d" x1="24.525" x2="32.675" y1="53.65" y2="53.65" gradientUnits="userSpaceOnUse">
		<stop stop-opacity=".149" offset="0"/>
		<stop stop-opacity=".149" offset=".8588"/>
		<stop stop-opacity=".149" offset="1"/>
	</linearGradient>
	<path d="m29.2 56.1c-0.367 0-0.816-0.066-1.351-0.199-0.566-0.134-1-0.217-1.3-0.25l0.101-0.051c0.267-0.133 0.517-0.25 0.75-0.35 0.333-0.333 0.683-0.566 1.05-0.7 0-0.1 0.017-0.184 0.05-0.25 0.667-0.2 1.083-0.55 1.25-1.05 0.1-0.267 0.066-0.634-0.1-1.1-0.101-0.367-0.384-0.634-0.851-0.801h-0.05c0-0.3 0.017-0.583 0.05-0.85 0.467 0 1.017 0.116 1.65 0.35 1.233 0.467 1.95 1.034 2.149 1.7 0.134 0.4 0.067 0.733-0.199 1-0.267 0.233-0.601 0.367-1 0.4-0.034 0.166-0.051 0.45-0.051 0.85-0.032 0.101-0.081 0.201-0.148 0.301-0.167 0.167-0.417 0.334-0.75 0.5-0.434 0.233-0.8 0.384-1.101 0.45-0.033 0-0.082 0.016-0.149 0.05zm-4.5 0.65c0.434-0.3 0.833-0.55 1.2-0.75l0.5-0.25c0.066 0.566 0.05 0.9-0.051 1-0.033 0.033-0.267 0.05-0.699 0.05h-0.8c-0.067 0-0.117-0.017-0.15-0.05z" fill="url(#d)"/>
</g>
</svg>
